<svg id="Layer_1" data-name="Layer 1" xmlns="http://www.w3.org/2000/svg" viewBox="0 0 47.23 47.23"><title>copy</title><path d="M24.55,16.8H8.69c-3.26,0-5.06,0-6.41,1.34S.93,21.28.93,24.55V40.41c0,3.26,0,5.06,1.35,6.41s3.13,1.35,6.41,1.35H24.55c3.26,0,5.05,0,6.4-1.35s1.35-3.13,1.35-6.41V24.55c0-3.26,0-5.05-1.34-6.4S27.82,16.8,24.55,16.8Zm4.95,7.75V40.41c0,2.44,0,3.91-.53,4.44s-2,.51-4.42.51H8.49c-2.32,0-3.73,0-4.23-.51s-.52-2-.52-4.44v-16c0-2.45,0-3.81.51-4.32s2-.53,4.44-.53H24.55c2.43,0,3.89,0,4.43.53S29.5,22.12,29.5,24.55Z" transform="translate(-0.93 -0.93)"/><path d="M46.82,2.28C45.49.93,43.69.93,40.41.93H24.55c-3.26,0-5.05,0-6.4,1.35S16.8,5.41,16.8,8.69v3.17a1.4,1.4,0,0,0,2.8,0V8.69c0-2.44,0-3.91.53-4.44s2-.51,4.42-.51H40.61c2.32,0,3.73,0,4.23.51s.52,2,.52,4.44v16c0,2.45,0,3.81-.51,4.32s-2,.53-4.44.53H37.24a1.4,1.4,0,0,0,0,2.8h3.17c3.26,0,5.06,0,6.41-1.34s1.35-3.14,1.35-6.41V8.69C48.17,5.43,48.17,3.63,46.82,2.28Z" transform="translate(-0.93 -0.93)"/></svg>