<svg id="Layer_1" data-name="Layer 1" xmlns="http://www.w3.org/2000/svg" viewBox="0 0 44.19 43.58"><title>delete</title><path d="M14.62,38.84a1.45,1.45,0,0,0,1.45-1.45V17.48a1.45,1.45,0,0,0-2.9,0V37.39A1.45,1.45,0,0,0,14.62,38.84Z" transform="translate(-1.06 -1.99)"/><path d="M23.15,38.84a1.45,1.45,0,0,0,1.45-1.45V17.48a1.45,1.45,0,0,0-2.89,0V37.39A1.45,1.45,0,0,0,23.15,38.84Z" transform="translate(-1.06 -1.99)"/><path d="M31.52,38.75h.17a1.45,1.45,0,0,0,1.44-1.28V17.4a1.45,1.45,0,0,0-1.27-1.28h-.17a1.45,1.45,0,0,0-1.44,1.29V37.48A1.45,1.45,0,0,0,31.52,38.75Z" transform="translate(-1.06 -1.99)"/><path d="M45.25,8.44A1.42,1.42,0,0,0,43.83,7.1H31.26l-1.06-4A1.45,1.45,0,0,0,28.82,2h-11a1.46,1.46,0,0,0-1.39,1L15.39,7.1H2.5A1.42,1.42,0,0,0,1.06,8.44v.09A1.42,1.42,0,0,0,2.48,9.86H7V40.7a5,5,0,0,0,5,4.87H34.27a5,5,0,0,0,5-4.84V9.86H43.8a1.44,1.44,0,0,0,1.45-1.33V8.44ZM27.67,4.76l.61,2.34h-9.9L19,4.76Zm8.8,5.1L36.39,40.7a2.17,2.17,0,0,1-2.19,2.11h-22A2.19,2.19,0,0,1,10,40.68V9.86Z" transform="translate(-1.06 -1.99)"/></svg>