<svg id="Layer_1" data-name="Layer 1" xmlns="http://www.w3.org/2000/svg" viewBox="0 0 43.13 37.6"><title>edit</title><path d="M34.39,4.26l-2.9-2.91A4.19,4.19,0,0,0,28.18.14,5,5,0,0,0,25,1.61L5.72,20.86a1.72,1.72,0,0,0-.44.83L4,28.48a2.52,2.52,0,0,0,.54,2.73,2.47,2.47,0,0,0,1.74.72h0a2.75,2.75,0,0,0,1-.17l6.8-1.3a1.54,1.54,0,0,0,.84-.45L34.15,10.78a5,5,0,0,0,1.49-3.21A4.2,4.2,0,0,0,34.39,4.26Zm-5.22-.55,2.89,2.91a1,1,0,0,1,.28.79,1.81,1.81,0,0,1-.53,1.12L13,27.38,7.32,28.45,8.4,22.83,27.26,4a1.74,1.74,0,0,1,1.13-.53A1,1,0,0,1,29.17,3.71Z" transform="translate(-2.2 -0.12)"/><path d="M44.85,35a1.71,1.71,0,0,0-1.17-.45H3.85a1.67,1.67,0,0,0-1.17.46,1.51,1.51,0,0,0,0,2.22,1.69,1.69,0,0,0,1.16.45H43.69a1.61,1.61,0,0,0,1.64-1.57A1.53,1.53,0,0,0,44.85,35Z" transform="translate(-2.2 -0.12)"/></svg>