<svg id="Layer_1" data-name="Layer 1" xmlns="http://www.w3.org/2000/svg" viewBox="0 0 45.01 38.47"><title>translator</title><path d="M46.28,17.56a5.14,5.14,0,0,0-5.15-4.95H30.22V6.75A5.39,5.39,0,0,0,25.2,1H6.76a5.41,5.41,0,0,0-5.38,5,4.42,4.42,0,0,0,0,.63V18.33a5.43,5.43,0,0,0,4.47,5.53H6l.19,0,.24,0v1.51a2.25,2.25,0,0,0,1.67,2.37,2.76,2.76,0,0,0,.77.12,2.32,2.32,0,0,0,1.95-1.07l.15-.22c.54-.75,1.15-1.61,1.8-2.38v0l0,0a.93.93,0,0,1,.56-.37h4.1v5.83a5.32,5.32,0,0,0,4.86,5.72,3.52,3.52,0,0,0,.45,0l.39,0H33.17a1.73,1.73,0,0,1,1,.44c.64.57,1.28,1.21,1.9,1.83l.21.21.76.79a2.5,2.5,0,0,0,1.74.82,2.58,2.58,0,0,0,1.06-.23,2.34,2.34,0,0,0,1.37-2.38V35.52c3.07-.54,4.87-2.37,5-5C46.4,26.52,46.43,22.29,46.28,17.56ZM15.82,9.89l1.62,3.57H14.22Zm1.38-2.7a2.08,2.08,0,0,0-1.25-1l-.27-.07-.26.12a2,2,0,0,0-1,.93c-1,2.17-2,4.35-3,6.47l-.19.42L9.66,17.67a1.88,1.88,0,0,0-.2,1.23l0,.12.06.11a1.39,1.39,0,0,0,.74.63,1.65,1.65,0,0,0,.53.13,1.36,1.36,0,0,0,.69-.19,1.87,1.87,0,0,0,.7-.89c.41-1,.78-1.78,1.15-2.49a.79.79,0,0,1,.46-.39h3.94l0,.42c-.08,1.22-.16,2.43-.25,3.66l-.07,1.17H12.74a2.15,2.15,0,0,0-1.86,1.06A18.3,18.3,0,0,1,9.2,24.37V23a1.82,1.82,0,0,0-.38-1.37l-.07-.09-.1-.07a1.92,1.92,0,0,0-1.09-.33H7.44C5,21.07,4.2,20.27,4.2,17.71V6.89c0-2.13,1-3.08,3.1-3.09H24.43c2,0,3,1,3.05,3v5.72c-.35,0-.7,0-1.06,0H23.53a7.84,7.84,0,0,0-3.48.82l-.3-.69-.84-1.82-.43-1C18.12,9.06,17.68,8.09,17.2,7.19ZM38.57,34.75v1.58l-.43-.41-.43-.44c-.61-.62-1.18-1.21-1.75-1.83a2.69,2.69,0,0,0-2.05-.93H23.37c-2.12,0-3.12-1-3.13-3.06V18.41c0-2,1-3.06,3-3.06H40.53c2,0,3,1,3,3.06V29.66c0,2-1,3-3,3.07C38.91,32.73,38.57,33.08,38.57,34.75Z" transform="translate(-1.37 -1.03)"/><path d="M36.47,20.52H32.91V18.67c0-.67-.33-1.12-.82-1.12h-.21l-.08,0a1.71,1.71,0,0,0-.86,1.05,3.5,3.5,0,0,0,0,1.2v.66H27.29c-.72,0-1.37.07-1.36.95a1,1,0,0,0,.19.74l.05.06,0,0a1.36,1.36,0,0,0,.74.21h7.36A6.81,6.81,0,0,1,31.82,27l-.51-.68c-.43-.56-.84-1.13-1.08-1.5S29.65,24,29.18,24a1.13,1.13,0,0,0-1,.8,1.45,1.45,0,0,0,.29,1.05c.22.35.45.68.7,1l.89,1.28-.83.16a14.75,14.75,0,0,1-1.72.3c-.78.08-1.14.38-1.14.93v.13a1,1,0,0,0,.94.94h.33c.62-.12,1.25-.28,1.86-.43l.58-.15,1.28-.32a3.13,3.13,0,0,1,.58-.05h0a4.91,4.91,0,0,1,.53,0c.43.1.81.2,1.24.32l.64.17c.57.15,1.14.3,1.8.42h.37a.91.91,0,0,0,.65-.31.88.88,0,0,0,.23-.62c0-.66-.34-1-1.18-1.09a16.26,16.26,0,0,1-1.72-.3c-.25-.06-.48-.11-.73-.15l-.19-.05a9.39,9.39,0,0,0,2.68-5,.59.59,0,0,1,.44-.49,1.38,1.38,0,0,0,.91-.33c.33-.2.3-.55.24-.87C37.76,20.57,37.12,20.52,36.47,20.52Z" transform="translate(-1.37 -1.03)"/></svg>